:SAMPLES-PER-SECOND 30
:FULLY-SPECIFIED
:DEGREES
28
root  10.0712 39.8051 6.24482 -151.73 -88.0988 148.848
RightUpLeg  -1.33554 -8.99151 -4.12923
RightLeg  10.4931 -2.17478 0.0964132
RightFoot  -6.66796 -0.0711299 0.628698
RightToes  5.82063e-011 0 -3.6325e-017
Spine  5.43555 -1.42446 1.19177
Spine1  2.00302 -1.75577 2.17961
HEad  -9.66176 -5.43781 -5.44609
LeftShoulder1  -0.181888 4.19325 -19.8347
LeftArm  -19.1712 11.1176 -34.9367
LeftForeArm  10.5044 -5.36066 0.329653
LeftHand  -0.0364467 6.32253 -0.124994
RightShoulder  -0.406581 -4.99086 20.3559
RightArm  -12.3404 -15.5326 26.0167
RightForeArm  10.011 15.1674 -0.741248
RightHand  -0.101671 5.1967 -1.42315
LeftUpLeg  0.124821 9.62949 9.41253
LeftLeg  0.205391 -2.14875 0.0610916
LeftFoot  2.70206 0.839934 -6.94788
LeftToes  1.68253e-010 -3.2327e-011 -2.69673e-012
29
root  9.95668 39.7836 5.99386 -153.969 -88.0607 150.806
RightUpLeg  -0.994197 -8.93054 -3.76813
RightLeg  10.8511 -2.22767 0.122031
RightFoot  -7.1393 -0.0520939 0.104868
RightToes  5.82063e-011 0 -3.6325e-017
Spine  5.33147 -1.42419 1.25288
Spine1  2.34027 -1.79951 2.44262
HEad  -9.06366 -5.05142 -5.60679
LeftShoulder1  -0.269665 4.47987 -21.1632
LeftArm  -18.9133 11.992 -36.5213
LeftForeArm  11.2971 -4.63616 0.274434
LeftHand  -0.0557826 7.13193 -1.05422
RightShoulder  -0.487053 -5.22714 21.3966
RightArm  -9.25525 -16.6641 28.8591
RightForeArm  8.0068 13.0925 -1.20895
RightHand  -0.0530515 5.02404 -0.892919
LeftUpLeg  0.824419 9.77814 9.89892
LeftLeg  -0.172352 -2.37021 0.221126
LeftFoot  2.78254 0.889289 -7.30866
LeftToes  1.68253e-010 -3.2327e-011 -2.69673e-012
30
root  9.83586 39.7588 5.724 -156.696 -87.9846 153.395
RightUpLeg  -0.791845 -8.62267 -3.25673
RightLeg  11.1565 -2.41731 -0.0116378
RightFoot  -7.58977 -0.0454813 -0.18844
RightToes  5.82063e-011 0 -3.6325e-017
Spine  4.92465 -1.41246 1.35332
Spine1  2.88753 -1.85404 2.7751
HEad  -8.10903 -4.6334 -5.76431
LeftShoulder1  -0.372906 4.79898 -22.3914
LeftArm  -18.4183 12.9403 -37.9803
LeftForeArm  11.5327 -3.96706 0.083421
LeftHand  -0.0726718 7.11074 -2.12116
RightShoulder  -0.546108 -5.40862 21.8363
RightArm  -8.13604 -18.1623 32.2864
RightForeArm  8.0861 11.6766 -1.43168
RightHand  -0.0508785 4.19133 -0.901545
LeftUpLeg  1.28858 9.95989 10.4342
LeftLeg  -0.355693 -2.61409 0.323462
LeftFoot  2.80695 0.941357 -7.71668
LeftToes  1.68253e-010 -3.2327e-011 -2.69673e-012
31
root  9.70385 39.7131 5.42934 -161.842 -87.7368 158.185
RightUpLeg  -0.427135 -8.6108 -2.83814
RightLeg  11.6561 -2.21488 0.0944651
RightFoot  -8.17486 -0.0375052 -0.641528
RightToes  5.82063e-011 0 -3.6325e-017
Spine  5.05904 -1.48641 1.43212
Spine1  2.9715 -1.95271 3.0257
HEad  -7.53637 -3.54357 -5.84569
LeftShoulder1  -0.520598 5.24764 -23.4868
LeftArm  -17.8548 14.6294 -39.0168
LeftForeArm  12.0372 -4.19376 -0.31256
LeftHand  -0.0762311 7.30712 -1.91189
RightShoulder  -0.63345 -5.65236 22.7277
RightArm  -7.00785 -19.5502 35.0914
RightForeArm  8.61172 10.8912 -1.25771
RightHand  -0.0673833 3.67196 -1.12097
LeftUpLeg  1.89729 10.1938 11.1005
LeftLeg  -0.169365 -2.76532 0.437392
LeftFoot  2.51162 0.97937 -8.17924
LeftToes  1.68253e-010 -3.2327e-011 -2.69673e-012
32
root  9.57279 39.6643 5.13597 -166.258 -87.3353 162.201
RightUpLeg  -0.0504925 -8.34299 -2.33839
RightLeg  12.1736 -2.11417 -0.0161104
RightFoot  -8.75262 -0.0401046 -0.848733
RightToes  5.82063e-011 0 -3.6325e-017
Spine  5.25394 -1.57888 1.50939
Spine1  3.18033 -2.08895 3.37068
HEad  -7.10109 -2.27944 -6.68278
LeftShoulder1  -0.716353 5.79683 -24.9171
LeftArm  -17.8698 16.4877 -39.8945
LeftForeArm  12.9244 -5.02022 -0.472732
LeftHand  -0.0650673 6.76426 -1.62177
RightShoulder  -0.721032 -5.88501 23.5859
RightArm  -6.88106 -21.1853 37.6195
RightForeArm  10.5353 11.4106 -1.0222
RightHand  0.0100122 3.91802 -0.147673
LeftUpLeg  2.49542 10.2377 11.6327
LeftLeg  0.175591 -2.62433 0.701911
LeftFoot  2.13505 1.00291 -8.58743
LeftToes  1.68253e-010 -3.2327e-011 -2.69673e-012
33
root  9.4546 39.6036 4.8816 -168.821 -86.9041 164.587
RightUpLeg  0.0278243 -8.44762 -2.05782
RightLeg  12.8271 -1.63059 0.148116
RightFoot  -9.4333 -0.0444506 -1.17779
RightToes  5.82063e-011 0 -3.6325e-017
Spine  5.35523 -1.71844 1.79126
Spine1  3.34284 -2.24722 3.66602
HEad  -6.78256 -0.890667 -7.28812
LeftShoulder1  -0.928764 6.3574 -26.3003
LeftArm  -17.5371 18.2549 -40.6104
LeftForeArm  13.0289 -5.98723 -0.845595
LeftHand  -0.0689062 7.03645 -2.00044
RightShoulder  -0.826107 -6.16097 24.4398
RightArm  -5.32098 -22.1816 39.5884
RightForeArm  9.87867 11.7194 -0.270571
RightHand  -0.0636357 3.35192 -1.08377
LeftUpLeg  2.38881 10.1686 11.9992
LeftLeg  1.45589 -2.34903 0.930993
LeftFoot  1.3628 0.949147 -8.59655
LeftToes  1.68253e-010 -3.2327e-011 -2.69673e-012
34
root  9.353 39.5081 4.66298 -170.304 -86.382 165.82
RightUpLeg  -0.077558 -8.98562 -2.04121
RightLeg  14.0217 -0.639784 0.568672
RightFoot  -10.409 -0.0582871 -1.46233
RightToes  5.82063e-011 0 -3.6325e-017
Spine  5.77424 -1.90829 2.52995
Spine1  3.29943 -2.29783 3.46416
HEad  -6.36918 -0.0341506 -7.40118
LeftShoulder1  -1.07978 6.69893 -27.5308
LeftArm  -17.1814 19.9987 -41.0824
LeftForeArm  13.3782 -7.11959 -1.26749
LeftHand  -0.0758969 7.64965 -1.66373
RightShoulder  -0.921877 -6.3922 25.3292
RightArm  -3.77867 -22.9292 41.2601
RightForeArm  10.7627 12.3852 0.477344
RightHand  -0.0786632 3.25697 -1.29289
LeftUpLeg  1.70862 9.32789 12.062
LeftLeg  4.04658 -1.19782 1.34322
LeftFoot  -0.218406 0.800728 -8.18575
LeftToes  1.68253e-010 -3.2327e-011 -2.69673e-012
35
root  9.26659 39.4077 4.4781 -174.244 -85.9656 169.069
RightUpLeg  0.399288 -9.09382 -1.80162
RightLeg  14.9592 -0.13715 0.701735
RightFoot  -11.2937 -0.0759679 -1.56686
RightToes  5.82063e-011 0 -3.6325e-017
Spine  6.54214 -2.08813 3.16421
Spine1  3.62698 -2.45606 3.87599
HEad  -6.25357 0.776397 -8.30864
LeftShoulder1  -1.24851 7.03026 -29.2066
LeftArm  -16.5475 20.7087 -41.44
LeftForeArm  14.2956 -7.51844 -1.72971
LeftHand  -0.0812474 8.19029 -1.46494
RightShoulder  -0.929001 -6.38382 25.6661
RightArm  -1.73368 -22.8046 42.7999
RightForeArm  12.1811 12.3523 1.18795
RightHand  -0.0534958 3.09479 -0.964476
LeftUpLeg  0.709229 7.42 12.2597
LeftLeg  8.09258 0.682088 1.49094
LeftFoot  -2.13862 0.526581 -6.34481
LeftToes  1.68253e-010 -3.2327e-011 -2.69673e-012
